<svg viewBox="0 0 400 400" xmlns="http://www.w3.org/2000/svg" height="400" width="400"><g transform="matrix(4,0,0,4,0,0)"><path d="M10.000 54.819 A40.000 40.000 0 1 0 90.000 54.819 A40.000 40.000 0 1 0 10.000 54.819 Z" fill="#e8f4fa" stroke="#daedf7"></path><path d="M56.777,5.181v5.2a.8.8,0,0,1-.8.8H42.518a.8.8,0,0,1-.8-.8v-5.2" fill="#009fd9" stroke="#45413c" stroke-linecap="round" stroke-linejoin="round"></path><path d="M76.1,46.7H23.578a2,2,0,0,0-2,2V82.582H78.1V48.7A2,2,0,0,0,76.1,46.7Z" fill="#ffffff" stroke="#45413c" stroke-linecap="round" stroke-linejoin="round"></path><path d="M74.113 50.687L25.624 50.687 25.568 82.582 74.113 82.582 74.113 50.687z" fill="#80ddff"></path><path d="M62.088 50.687L27.84 82.582 25.568 82.582 25.624 50.687 62.088 50.687z" fill="#b8ecff"></path><path d="M74.113 50.687L25.624 50.687 25.568 82.582 74.113 82.582 74.113 50.687z" fill="none" stroke="#45413c" stroke-linecap="round" stroke-linejoin="round"></path><path d="M19.251 90.562 A31.92 1.995 0 1 0 83.091 90.562 A31.92 1.995 0 1 0 19.251 90.562 Z" fill="#45413c" opacity=".15"></path><path d="M83.091,86.572h-66.5v-2.99a1,1,0,0,1,1-1h64.5a1,1,0,0,1,1,1Z" fill="#f0f0f0" stroke="#45413c" stroke-linecap="round" stroke-linejoin="round"></path><path d="M83.091,86.573A69.163,69.163,0,0,1,64.1,89.232H35.583a69.157,69.157,0,0,1-18.992-2.659h66.5Z" fill="#bdbec0" stroke="#45413c" stroke-linecap="round" stroke-linejoin="round"></path><path d="M61.019,33.121a4.378,4.378,0,0,0-4.374-4.373H42.372A4.378,4.378,0,0,0,38,33.121V44.176H41.8V33.121a1.082,1.082,0,0,1,1.068-1.067H56.145a1.081,1.081,0,0,1,1.067,1.067V44.176h3.807Z" fill="#bf8256" stroke="#45413c" stroke-linecap="round" stroke-linejoin="round"></path><path d="M67.137,79.543H32.545a1.24,1.24,0,0,1-1.238-1.3l1.85-36.948a1,1,0,0,1,.987-.937H66a1,1,0,0,1,.988.954l1.387,36.947A1.24,1.24,0,0,1,67.137,79.543Z" fill="#f0d5a8"></path><path d="M67.139,45.315l-.15-4A1,1,0,0,0,66,40.356H34.144a1,1,0,0,0-.987.937l-.2,4.022Z" fill="#f7e5c6"></path><path d="M67.137,79.543H32.545a1.24,1.24,0,0,1-1.238-1.3l1.85-36.948a1,1,0,0,1,.987-.937H66a1,1,0,0,1,.988.954l1.387,36.947A1.24,1.24,0,0,1,67.137,79.543Z" fill="none" stroke="#45413c" stroke-linecap="round" stroke-linejoin="round"></path><path d="M42.692,11.183V13.3a.8.8,0,0,0,.8.8H55.008a.8.8,0,0,0,.8-.8V11.183Z" fill="#ffffff" stroke="#45413c" stroke-linecap="round" stroke-linejoin="round"></path><path d="M57.256,32.879V31.458H58.82a4.867,4.867,0,0,1,1.912.389,3.444,3.444,0,0,0,.026-.42V26.933c0-8.842-5.929-7.232-5.929-12.83H43.657v2.672c0,2.861-1.943,3.738-1.943,8.743v8.014a1.943,1.943,0,0,0,3.886,0V34.5a1.943,1.943,0,0,0,3.886,0v.972a1.943,1.943,0,1,0,3.886,0v.607a1.943,1.943,0,1,0,3.885,0v-3.2Z" fill="#ffcebf"></path><path d="M54.829,14.1H43.657v2.672c0,1.668-.66,2.662-1.211,4.193a20.67,20.67,0,0,1,17.711,1.817C58.649,18.446,54.829,18.6,54.829,14.1Z" fill="#ffb59e"></path><path d="M57.256,32.879V31.458H58.82a4.867,4.867,0,0,1,1.912.389,3.444,3.444,0,0,0,.026-.42V26.933c0-8.842-5.929-7.232-5.929-12.83H43.657v2.672c0,2.861-1.943,3.738-1.943,8.743v8.014a1.943,1.943,0,0,0,3.886,0V34.5a1.943,1.943,0,0,0,3.886,0v.972a1.943,1.943,0,1,0,3.886,0v.607a1.943,1.943,0,1,0,3.885,0v-3.2Z" fill="none" stroke="#45413c" stroke-linecap="round" stroke-linejoin="round"></path><path d="M57.265 27.21L57.261 33.611" fill="none" stroke="#45413c" stroke-linecap="round" stroke-linejoin="round"></path><path d="M49.486 32.399L49.486 34.503" fill="#ffcebf" stroke="#45413c" stroke-linecap="round" stroke-linejoin="round"></path><path d="M53.372 32.56L53.372 35.475" fill="#ffcebf" stroke="#45413c" stroke-linecap="round" stroke-linejoin="round"></path><path d="M45.6 32.399L45.6 33.532" fill="#ffcebf" stroke="#45413c" stroke-linecap="round" stroke-linejoin="round"></path><path d="M41.341 56.423 A1.500 1.500 0 1 0 44.341 56.423 A1.500 1.500 0 1 0 41.341 56.423 Z" fill="#45413c"></path><path d="M55.341 56.423 A1.500 1.500 0 1 0 58.341 56.423 A1.500 1.500 0 1 0 55.341 56.423 Z" fill="#45413c"></path><path d="M43.35,62.4c3.585,5.193,9.4,5.193,12.982,0Z" fill="#ff866e" stroke="#45413c" stroke-linecap="round" stroke-linejoin="round"></path><path d="M57.266,40.356h3.753V33.121a4.368,4.368,0,0,0-3.755-4.311l0,4.288c0,.008,0,.015,0,.023Z" fill="#bf8256" stroke="#45413c" stroke-linecap="round" stroke-linejoin="round"></path></g></svg>